<?xml version="1.0" encoding="UTF-8"?>
<svg width="24" height="24" viewBox="0 0 24 24" fill="none" xmlns="http://www.w3.org/2000/svg">
    <!-- Background Circle -->
    <circle cx="12" cy="12" r="10" fill="url(#gradient)" />
    
    <!-- Magnifying Glass -->
    <path d="M15.5 14h-.79l-.28-.27C15.41 12.59 16 11.11 16 9.5 16 5.91 13.09 3 9.5 3S3 5.91 3 9.5 5.91 16 9.5 16c1.61 0 3.09-.59 4.23-1.57l.27.28v.79l5 4.99L20.49 19l-4.99-5zm-6 0C7.01 14 5 11.99 5 9.5S7.01 5 9.5 5 14 7.01 14 9.5 11.99 14 9.5 14z" fill="white"/>
    
    <!-- Search Handle -->
    <path d="M12.5 9.5l-3 3 1.5 1.5 3-3-1.5-1.5z" fill="white"/>
    
    <!-- Gradient Definition -->
    <defs>
        <linearGradient id="gradient" x1="2" y1="2" x2="22" y2="22" gradientUnits="userSpaceOnUse">
            <stop offset="0%" stop-color="#FF3366"/>
            <stop offset="100%" stop-color="#FF6B6B"/>
        </linearGradient>
    </defs>
</svg> 