<?xml version="1.0" encoding="UTF-8"?>
<svg width="24" height="24" viewBox="0 0 24 24" fill="none" xmlns="http://www.w3.org/2000/svg">
    <path d="M22 5.8c-.8.4-1.7.6-2.6.7.9-.6 1.6-1.5 1.9-2.6-.9.5-1.9.9-2.9 1.1-.8-.9-2-1.5-3.3-1.5-2.5 0-4.5 2-4.5 4.5 0 .4 0 .7.1 1-3.7-.2-7-2-9.2-4.7-.4.7-.6 1.5-.6 2.3 0 1.6.8 3 2 3.8-.7-.2-1.4-.7-1.6-1.3v.1c0 2.2 1.6 4 3.7 4.4-.4.1-.8.2-1.2.2-.3 0-.6 0-.9-.1.6 1.8 2.2 3.1 4.1 3.1-1.5 1.2-3.4 1.9-5.4 1.9-.4 0-.7 0-1.1-.1 2 1.3 4.4 2 7 2 8.4 0 13-7 13-13 0-.2 0-.4 0-.6.9-.7 1.7-1.5 2.3-2.5" stroke="currentColor" stroke-width="2" stroke-linecap="round" stroke-linejoin="round"/>
</svg> 