<?xml version="1.0" encoding="UTF-8"?>
<svg width="120" height="32" viewBox="0 0 120 32" fill="none" xmlns="http://www.w3.org/2000/svg">
  <path d="M16 8C16 12.4183 12.4183 16 8 16C3.58172 16 0 12.4183 0 8C0 3.58172 3.58172 0 8 0C12.4183 0 16 3.58172 16 8Z" fill="currentColor"/>
  <path d="M32 8C32 12.4183 28.4183 16 24 16C19.5817 16 16 12.4183 16 8C16 3.58172 19.5817 0 24 0C28.4183 0 32 3.58172 32 8Z" fill="currentColor"/>
  <path d="M24 32C24 27.5817 27.5817 24 32 24C36.4183 24 40 27.5817 40 32" stroke="currentColor" stroke-width="2"/>
  <path d="M8 32C8 27.5817 11.5817 24 16 24C20.4183 24 24 27.5817 24 32" stroke="currentColor" stroke-width="2"/>
  <path d="M48 4H116V28H48V4Z" fill="transparent"/>
  <path d="M54 10H110V22H54V10Z" fill="transparent"/>
  <text x="54" y="19" fill="currentColor" font-family="Arial" font-size="12" font-weight="bold">Hugging Face</text>
</svg> 