<?xml version="1.0" encoding="UTF-8"?>
<svg width="120" height="120" viewBox="0 0 120 120" fill="none" xmlns="http://www.w3.org/2000/svg">
  <path fill-rule="evenodd" clip-rule="evenodd" d="M60 120C93.1371 120 120 93.1371 120 60C120 26.8629 93.1371 0 60 0C26.8629 0 0 26.8629 0 60C0 93.1371 26.8629 120 60 120ZM82.5 37.5C82.5 34.7386 80.2614 32.5 77.5 32.5H42.5C39.7386 32.5 37.5 34.7386 37.5 37.5V82.5C37.5 85.2614 39.7386 87.5 42.5 87.5H77.5C80.2614 87.5 82.5 85.2614 82.5 82.5V37.5ZM45 40V80H75V40H45Z" fill="currentColor"/>
</svg> 